<mxfile host="Electron" modified="2023-08-23T03:09:15.720Z" agent="Mozilla/5.0 (Windows NT 10.0; Win64; x64) AppleWebKit/537.36 (KHTML, like Gecko) draw.io/21.6.8 Chrome/114.0.5735.289 Electron/25.5.0 Safari/537.36" etag="2k7nvDq6U5sCPaipTu1z" version="21.6.8" type="device">
  <diagram id="s2OB-DU0JTnL9yOqkVyo" name="Page-1">
    <mxGraphModel dx="760" dy="1849" grid="1" gridSize="10" guides="1" tooltips="1" connect="1" arrows="1" fold="1" page="1" pageScale="1" pageWidth="850" pageHeight="1100" math="0" shadow="0">
      <root>
        <mxCell id="0" />
        <mxCell id="1" parent="0" />
        <mxCell id="QtlVg9iiQ1AFf2BtgCd_-3" value="customer" style="shape=umlActor;verticalLabelPosition=bottom;verticalAlign=top;html=1;" parent="1" vertex="1">
          <mxGeometry x="90" y="-670" width="30" height="60" as="geometry" />
        </mxCell>
        <mxCell id="QtlVg9iiQ1AFf2BtgCd_-4" value="staff" style="shape=umlActor;verticalLabelPosition=bottom;verticalAlign=top;html=1;" parent="1" vertex="1">
          <mxGeometry x="760" y="-500" width="30" height="60" as="geometry" />
        </mxCell>
        <mxCell id="QtlVg9iiQ1AFf2BtgCd_-27" value="" style="verticalLabelPosition=bottom;verticalAlign=top;html=1;shape=mxgraph.basic.rect;fillColor2=none;strokeWidth=1;size=20;indent=5;" parent="1" vertex="1">
          <mxGeometry x="205" y="-910" width="490" height="780" as="geometry" />
        </mxCell>
        <mxCell id="QtlVg9iiQ1AFf2BtgCd_-28" value="" style="shape=ellipse;container=1;horizontal=1;horizontalStack=0;resizeParent=1;resizeParentMax=0;resizeLast=0;html=1;dashed=0;collapsible=0;" parent="1" vertex="1">
          <mxGeometry x="270" y="-820" width="170" height="100" as="geometry" />
        </mxCell>
        <mxCell id="QtlVg9iiQ1AFf2BtgCd_-29" value="Register" style="html=1;strokeColor=none;fillColor=none;align=center;verticalAlign=middle;rotatable=0;whiteSpace=wrap;" parent="QtlVg9iiQ1AFf2BtgCd_-28" vertex="1">
          <mxGeometry x="8.173076923076923" y="8.33" width="147.1153846153846" height="25" as="geometry" />
        </mxCell>
        <mxCell id="QtlVg9iiQ1AFf2BtgCd_-30" value="" style="line;strokeWidth=1;fillColor=none;rotatable=0;labelPosition=right;points=[];portConstraint=eastwest;dashed=0;resizeWidth=1;" parent="QtlVg9iiQ1AFf2BtgCd_-28" vertex="1">
          <mxGeometry x="22.884615384615383" y="33.33" width="132.40384615384616" height="8.333333333333334" as="geometry" />
        </mxCell>
        <mxCell id="QtlVg9iiQ1AFf2BtgCd_-33" value="Login" style="ellipse;whiteSpace=wrap;html=1;" parent="1" vertex="1">
          <mxGeometry x="280" y="-690" width="140" height="70" as="geometry" />
        </mxCell>
        <mxCell id="QtlVg9iiQ1AFf2BtgCd_-35" value="search food" style="ellipse;whiteSpace=wrap;html=1;" parent="1" vertex="1">
          <mxGeometry x="280" y="-600" width="140" height="70" as="geometry" />
        </mxCell>
        <mxCell id="QtlVg9iiQ1AFf2BtgCd_-37" value="make payment" style="ellipse;whiteSpace=wrap;html=1;" parent="1" vertex="1">
          <mxGeometry x="285" y="-420" width="140" height="70" as="geometry" />
        </mxCell>
        <mxCell id="QtlVg9iiQ1AFf2BtgCd_-39" value="checkpass" style="ellipse;whiteSpace=wrap;html=1;" parent="1" vertex="1">
          <mxGeometry x="520" y="-750" width="140" height="70" as="geometry" />
        </mxCell>
        <mxCell id="QtlVg9iiQ1AFf2BtgCd_-40" value="show error" style="ellipse;whiteSpace=wrap;html=1;" parent="1" vertex="1">
          <mxGeometry x="520" y="-670" width="140" height="70" as="geometry" />
        </mxCell>
        <mxCell id="QtlVg9iiQ1AFf2BtgCd_-45" value="pay by cash" style="ellipse;whiteSpace=wrap;html=1;" parent="1" vertex="1">
          <mxGeometry x="380" y="-290" width="140" height="70" as="geometry" />
        </mxCell>
        <mxCell id="QtlVg9iiQ1AFf2BtgCd_-46" value="pay by card" style="ellipse;whiteSpace=wrap;html=1;" parent="1" vertex="1">
          <mxGeometry x="230" y="-290" width="140" height="70" as="geometry" />
        </mxCell>
        <mxCell id="QtlVg9iiQ1AFf2BtgCd_-47" value="show privacy" style="ellipse;whiteSpace=wrap;html=1;" parent="1" vertex="1">
          <mxGeometry x="520" y="-835" width="140" height="70" as="geometry" />
        </mxCell>
        <mxCell id="QtlVg9iiQ1AFf2BtgCd_-32" value="show privacy" style="text;html=1;align=left;verticalAlign=middle;rotatable=0;spacingLeft=25;fillColor=none;strokeColor=none;whiteSpace=wrap;" parent="1" vertex="1">
          <mxGeometry x="298" y="-765" width="112" height="25" as="geometry" />
        </mxCell>
        <mxCell id="QtlVg9iiQ1AFf2BtgCd_-57" value="&amp;lt;&amp;lt;extend&amp;gt;&amp;gt;&amp;gt;" style="endArrow=open;html=1;rounded=0;align=center;verticalAlign=bottom;dashed=1;endFill=0;labelBackgroundColor=none;exitX=0;exitY=0.5;exitDx=0;exitDy=0;" parent="1" source="QtlVg9iiQ1AFf2BtgCd_-40" edge="1">
          <mxGeometry relative="1" as="geometry">
            <mxPoint x="270" y="-570" as="sourcePoint" />
            <mxPoint x="410" y="-640" as="targetPoint" />
            <Array as="points" />
          </mxGeometry>
        </mxCell>
        <mxCell id="QtlVg9iiQ1AFf2BtgCd_-59" value="&amp;lt;&amp;lt;extend&amp;gt;&amp;gt;" style="endArrow=open;html=1;rounded=0;align=center;verticalAlign=bottom;dashed=1;endFill=0;labelBackgroundColor=none;exitX=1;exitY=0.5;exitDx=0;exitDy=0;" parent="1" source="QtlVg9iiQ1AFf2BtgCd_-28" target="QtlVg9iiQ1AFf2BtgCd_-47" edge="1">
          <mxGeometry relative="1" as="geometry">
            <mxPoint x="270" y="-570" as="sourcePoint" />
            <mxPoint x="430" y="-570" as="targetPoint" />
          </mxGeometry>
        </mxCell>
        <mxCell id="QtlVg9iiQ1AFf2BtgCd_-60" value="" style="resizable=0;html=1;align=center;verticalAlign=top;labelBackgroundColor=none;" parent="QtlVg9iiQ1AFf2BtgCd_-59" connectable="0" vertex="1">
          <mxGeometry relative="1" as="geometry" />
        </mxCell>
        <mxCell id="QtlVg9iiQ1AFf2BtgCd_-65" value="" style="endArrow=classic;html=1;rounded=0;endFill=1;" parent="1" target="QtlVg9iiQ1AFf2BtgCd_-35" edge="1">
          <mxGeometry width="50" height="50" relative="1" as="geometry">
            <mxPoint x="120" y="-630" as="sourcePoint" />
            <mxPoint x="160" y="-550" as="targetPoint" />
          </mxGeometry>
        </mxCell>
        <mxCell id="QtlVg9iiQ1AFf2BtgCd_-66" value="" style="endArrow=classic;html=1;rounded=0;entryX=0.002;entryY=0.64;entryDx=0;entryDy=0;entryPerimeter=0;startArrow=none;startFill=0;endFill=1;" parent="1" target="QtlVg9iiQ1AFf2BtgCd_-28" edge="1">
          <mxGeometry width="50" height="50" relative="1" as="geometry">
            <mxPoint x="120" y="-630" as="sourcePoint" />
            <mxPoint x="380" y="-800" as="targetPoint" />
          </mxGeometry>
        </mxCell>
        <mxCell id="QtlVg9iiQ1AFf2BtgCd_-68" value="" style="endArrow=classic;html=1;rounded=0;entryX=0.034;entryY=0.36;entryDx=0;entryDy=0;entryPerimeter=0;endFill=1;" parent="1" target="QtlVg9iiQ1AFf2BtgCd_-36" edge="1">
          <mxGeometry width="50" height="50" relative="1" as="geometry">
            <mxPoint x="120" y="-630" as="sourcePoint" />
            <mxPoint x="380" y="-500" as="targetPoint" />
          </mxGeometry>
        </mxCell>
        <mxCell id="QtlVg9iiQ1AFf2BtgCd_-69" value="" style="endArrow=classic;html=1;rounded=0;entryX=0;entryY=0.5;entryDx=0;entryDy=0;endFill=1;" parent="1" target="QtlVg9iiQ1AFf2BtgCd_-33" edge="1">
          <mxGeometry width="50" height="50" relative="1" as="geometry">
            <mxPoint x="120" y="-630" as="sourcePoint" />
            <mxPoint x="200" y="-665" as="targetPoint" />
          </mxGeometry>
        </mxCell>
        <mxCell id="QtlVg9iiQ1AFf2BtgCd_-70" value="" style="endArrow=none;html=1;rounded=0;exitX=0;exitY=0.5;exitDx=0;exitDy=0;endFill=0;startArrow=classic;startFill=1;" parent="1" source="QtlVg9iiQ1AFf2BtgCd_-37" edge="1">
          <mxGeometry width="50" height="50" relative="1" as="geometry">
            <mxPoint x="110" y="-480" as="sourcePoint" />
            <mxPoint x="120" y="-630" as="targetPoint" />
          </mxGeometry>
        </mxCell>
        <mxCell id="QtlVg9iiQ1AFf2BtgCd_-36" value="older food" style="ellipse;whiteSpace=wrap;html=1;" parent="1" vertex="1">
          <mxGeometry x="284" y="-510" width="140" height="70" as="geometry" />
        </mxCell>
        <mxCell id="QtlVg9iiQ1AFf2BtgCd_-81" value="&amp;lt;&amp;lt;include&amp;gt;&amp;gt;" style="html=1;verticalAlign=bottom;labelBackgroundColor=none;endArrow=open;endFill=0;dashed=1;rounded=0;exitX=0.983;exitY=0.36;exitDx=0;exitDy=0;exitPerimeter=0;entryX=0;entryY=0.5;entryDx=0;entryDy=0;" parent="1" source="QtlVg9iiQ1AFf2BtgCd_-33" target="QtlVg9iiQ1AFf2BtgCd_-39" edge="1">
          <mxGeometry width="160" relative="1" as="geometry">
            <mxPoint x="320" y="-690" as="sourcePoint" />
            <mxPoint x="480" y="-690" as="targetPoint" />
          </mxGeometry>
        </mxCell>
        <mxCell id="QtlVg9iiQ1AFf2BtgCd_-82" value="FOOD" style="text;html=1;strokeColor=none;fillColor=none;align=center;verticalAlign=middle;whiteSpace=wrap;rounded=0;" parent="1" vertex="1">
          <mxGeometry x="220" y="-910" width="60" height="30" as="geometry" />
        </mxCell>
        <mxCell id="QtlVg9iiQ1AFf2BtgCd_-97" value="" style="endArrow=block;html=1;rounded=0;align=center;verticalAlign=bottom;endFill=0;labelBackgroundColor=none;endSize=8;entryX=0.56;entryY=1.048;entryDx=0;entryDy=0;entryPerimeter=0;" parent="1" target="QtlVg9iiQ1AFf2BtgCd_-37" edge="1">
          <mxGeometry relative="1" as="geometry">
            <mxPoint x="370" y="-310" as="sourcePoint" />
            <mxPoint x="440" y="-290" as="targetPoint" />
          </mxGeometry>
        </mxCell>
        <mxCell id="QtlVg9iiQ1AFf2BtgCd_-98" value="" style="resizable=0;html=1;align=center;verticalAlign=top;labelBackgroundColor=none;" parent="QtlVg9iiQ1AFf2BtgCd_-97" connectable="0" vertex="1">
          <mxGeometry relative="1" as="geometry" />
        </mxCell>
        <mxCell id="QtlVg9iiQ1AFf2BtgCd_-100" value="" style="endArrow=none;html=1;rounded=0;exitX=0.5;exitY=0;exitDx=0;exitDy=0;" parent="1" source="QtlVg9iiQ1AFf2BtgCd_-46" target="QtlVg9iiQ1AFf2BtgCd_-45" edge="1">
          <mxGeometry width="50" height="50" relative="1" as="geometry">
            <mxPoint x="340" y="-260" as="sourcePoint" />
            <mxPoint x="390" y="-310" as="targetPoint" />
            <Array as="points">
              <mxPoint x="300" y="-310" />
              <mxPoint x="360" y="-310" />
              <mxPoint x="450" y="-310" />
            </Array>
          </mxGeometry>
        </mxCell>
        <mxCell id="7bDqSxZfphr__RT4-ZCE-4" value="" style="endArrow=classic;html=1;rounded=0;entryX=1;entryY=0.5;entryDx=0;entryDy=0;startArrow=none;startFill=0;endFill=1;" edge="1" parent="1" target="QtlVg9iiQ1AFf2BtgCd_-35">
          <mxGeometry width="50" height="50" relative="1" as="geometry">
            <mxPoint x="750" y="-480" as="sourcePoint" />
            <mxPoint x="610" y="-530" as="targetPoint" />
          </mxGeometry>
        </mxCell>
        <mxCell id="7bDqSxZfphr__RT4-ZCE-5" value="create invoice" style="ellipse;whiteSpace=wrap;html=1;" vertex="1" parent="1">
          <mxGeometry x="520" y="-460" width="140" height="70" as="geometry" />
        </mxCell>
        <mxCell id="7bDqSxZfphr__RT4-ZCE-6" value="" style="endArrow=classic;html=1;rounded=0;entryX=1;entryY=0.5;entryDx=0;entryDy=0;" edge="1" parent="1" target="7bDqSxZfphr__RT4-ZCE-5">
          <mxGeometry width="50" height="50" relative="1" as="geometry">
            <mxPoint x="750" y="-440" as="sourcePoint" />
            <mxPoint x="710" y="-480" as="targetPoint" />
          </mxGeometry>
        </mxCell>
        <mxCell id="7bDqSxZfphr__RT4-ZCE-7" value="&amp;lt;&amp;lt;include&amp;gt;&amp;gt;" style="html=1;verticalAlign=bottom;labelBackgroundColor=none;endArrow=open;endFill=0;dashed=1;rounded=0;exitX=0;exitY=0.5;exitDx=0;exitDy=0;entryX=1;entryY=0.5;entryDx=0;entryDy=0;" edge="1" parent="1" source="7bDqSxZfphr__RT4-ZCE-5" target="QtlVg9iiQ1AFf2BtgCd_-37">
          <mxGeometry width="160" relative="1" as="geometry">
            <mxPoint x="430" y="-450" as="sourcePoint" />
            <mxPoint x="590" y="-450" as="targetPoint" />
          </mxGeometry>
        </mxCell>
        <mxCell id="7bDqSxZfphr__RT4-ZCE-8" value="" style="endArrow=classic;html=1;rounded=0;entryX=1;entryY=1;entryDx=0;entryDy=0;" edge="1" parent="1" target="QtlVg9iiQ1AFf2BtgCd_-33">
          <mxGeometry width="50" height="50" relative="1" as="geometry">
            <mxPoint x="750" y="-490" as="sourcePoint" />
            <mxPoint x="580" y="-470" as="targetPoint" />
          </mxGeometry>
        </mxCell>
      </root>
    </mxGraphModel>
  </diagram>
</mxfile>
